<?xml version="1.0" standalone="no"?>
<!DOCTYPE svg PUBLIC "-//W3C//DTD SVG 20010904//EN"
 "http://www.w3.org/TR/2001/REC-SVG-20010904/DTD/svg10.dtd">
<svg version="1.0" xmlns="http://www.w3.org/2000/svg"
 width="3500.000000pt" height="3500.000000pt" viewBox="0 0 3500.000000 3500.000000"
 preserveAspectRatio="xMidYMid meet">
<metadata>
Created by potrace 1.16, written by Peter Selinger 2001-2019
</metadata>
<g transform="translate(0.000000,3500.000000) scale(0.100000,-0.100000)"
fill="#000000" stroke="none">
<path d="M0 17500 l0 -17500 17500 0 17500 0 0 17500 0 17500 -17500 0 -17500
0 0 -17500z m30540 14655 c539 -77 1009 -416 1249 -900 126 -255 180 -511 168
-794 -26 -616 -399 -1170 -958 -1424 -41 -18 -4801 -1896 -10578 -4172
l-10504 -4140 39 -16 c21 -10 4757 -1829 10524 -4044 6165 -2368 10534 -4051
10605 -4085 458 -224 797 -660 905 -1165 31 -143 38 -411 16 -562 -92 -625
-539 -1146 -1141 -1332 -147 -46 -18313 -4533 -18409 -4547 -136 -21 -413 -14
-543 14 -218 47 -409 128 -598 252 -133 88 -341 291 -430 420 -124 181 -229
432 -272 655 -25 129 -25 433 1 570 63 337 215 626 460 870 177 177 329 278
550 367 127 51 -484 -101 6956 1738 3495 865 6356 1573 6357 1574 1 1 -3977
1530 -8840 3398 l-8842 3396 -6 -6297 c-5 -5795 -6 -6303 -22 -6386 -66 -362
-211 -646 -457 -895 -240 -244 -543 -405 -875 -466 -154 -29 -462 -26 -609 5
-633 134 -1127 609 -1277 1226 -52 216 -49 -474 -49 10411 0 6964 3 10114 10
10185 21 199 62 355 142 534 280 622 944 1015 1617 957 75 -7 175 -21 222 -31
617 -137 1104 -614 1249 -1226 44 -183 43 -166 49 -1630 l6 -1410 11258 4436
c6192 2440 11291 4446 11330 4458 101 29 193 49 273 60 110 14 310 12 424 -4z"/>
</g>
</svg>
